<svg width="32" height="32" viewBox="0 0 32 32" fill="none" xmlns="http://www.w3.org/2000/svg">
<g clip-path="url(#clip0)">
<circle cx="16" cy="16" r="16" fill="#0683F9"/>
<circle cx="16" cy="16" r="16" fill="white" fill-opacity="0.9"/>
<path d="M19.3047 21L18.1641 17.8281H13.7969L12.6797 21H10.7109L14.9844 9.53125H17.0156L21.2891 21H19.3047ZM17.6719 16.2188L16.6016 13.1094C16.5234 12.901 16.4141 12.5729 16.2734 12.125C16.138 11.6771 16.0443 11.349 15.9922 11.1406C15.8516 11.7812 15.6458 12.4818 15.375 13.2422L14.3438 16.2188H17.6719Z" fill="#0683F9"/>
<path d="M19.3047 21L18.1641 17.8281H13.7969L12.6797 21H10.7109L14.9844 9.53125H17.0156L21.2891 21H19.3047ZM17.6719 16.2188L16.6016 13.1094C16.5234 12.901 16.4141 12.5729 16.2734 12.125C16.138 11.6771 16.0443 11.349 15.9922 11.1406C15.8516 11.7812 15.6458 12.4818 15.375 13.2422L14.3438 16.2188H17.6719Z" fill="white" fill-opacity="0.5"/>
</g>
<defs>
<clipPath id="clip0">
<rect width="32" height="32" fill="white"/>
</clipPath>
</defs>
</svg>
