<svg width="13" height="13" viewBox="0 0 13 13" fill="none" xmlns="http://www.w3.org/2000/svg">
<path d="M8.86193 0.52827C9.12228 0.26792 9.54439 0.26792 9.80474 0.52827L12.4714 3.19494C12.7318 3.45529 12.7318 3.8774 12.4714 4.13775L3.80474 12.8044C3.67971 12.9294 3.51014 12.9997 3.33333 12.9997H0.666667C0.298477 12.9997 0 12.7012 0 12.333V9.66634C0 9.48953 0.0702379 9.31996 0.195262 9.19494L6.86179 2.52841L8.86193 0.52827ZM7.33333 3.94248L1.33333 9.94248V11.6663H3.05719L9.05719 5.66634L7.33333 3.94248ZM10 4.72353L11.0572 3.66634L9.33333 1.94248L8.27614 2.99967L10 4.72353Z" fill="#00718A"/>
</svg>
