<svg width="10" height="16" viewBox="0 0 10 16" fill="none" xmlns="http://www.w3.org/2000/svg">
<path d="M6 8C6 9.10457 6.89543 10 8 10C9.10457 10 10 9.10457 10 8C10 6.89543 9.10457 6 8 6C6.89543 6 6 6.89543 6 8Z" fill="#00718A"/>
<path d="M6 2C6 3.10457 6.89543 4 8 4C9.10457 4 10 3.10457 10 2C10 0.89543 9.10457 -3.91405e-08 8 -8.74228e-08C6.89543 -1.35705e-07 6 0.89543 6 2Z" fill="#00718A"/>
<path d="M6 14C6 15.1046 6.89543 16 8 16C9.10457 16 10 15.1046 10 14C10 12.8954 9.10457 12 8 12C6.89543 12 6 12.8954 6 14Z" fill="#00718A"/>
<path d="M-1.30337e-06 8C-1.35165e-06 9.10457 0.895429 10 2 10C3.10457 10 4 9.10457 4 8C4 6.89543 3.10457 6 2 6C0.89543 6 -1.25508e-06 6.89543 -1.30337e-06 8Z" fill="#00718A"/>
<path d="M-1.0411e-06 2C-1.08938e-06 3.10457 0.89543 4 2 4C3.10457 4 4 3.10457 4 2C4 0.89543 3.10457 -3.91405e-08 2 -8.74228e-08C0.89543 -1.35705e-07 -9.92815e-07 0.89543 -1.0411e-06 2Z" fill="#00718A"/>
<path d="M-1.56563e-06 14C-1.61392e-06 15.1046 0.895429 16 2 16C3.10457 16 4 15.1046 4 14C4 12.8954 3.10457 12 2 12C0.895429 12 -1.51735e-06 12.8954 -1.56563e-06 14Z" fill="#00718A"/>
</svg>
