<svg width="131" height="24" viewBox="0 0 131 24" fill="none" xmlns="http://www.w3.org/2000/svg">
<g clip-path="url(#clip0)">
<path d="M0 20.3585V0.0246011H4.9993C6.00723 -0.0247612 7.00923 0.206277 7.89596 0.692504C8.61979 1.13633 9.17543 1.81217 9.47417 2.61211C9.82722 3.58406 9.99357 4.61502 9.96429 5.64983C9.98713 6.60883 9.79618 7.56075 9.40555 8.43524C9.05118 9.19912 8.47289 9.83467 7.74892 10.2559C6.91107 10.7035 5.9711 10.9203 5.02381 10.8842H2.80843V20.3585H0ZM2.80843 8.86072H4.10237C4.75259 8.88773 5.40219 8.79381 6.01877 8.58366C6.24076 8.4956 6.44239 8.36228 6.61105 8.19203C6.77971 8.02178 6.91178 7.81826 6.99902 7.59417C7.22373 6.97204 7.32531 6.31145 7.298 5.64983C7.31982 4.91561 7.25399 4.18141 7.10195 3.46307C7.0476 3.22664 6.93963 3.00618 6.78654 2.81902C6.63345 2.63187 6.43942 2.48314 6.21972 2.38453C5.54833 2.14689 4.83732 2.04436 4.12687 2.08273H2.80843V8.86072Z" fill="#242424"/>
<path d="M15.0465 20.5615C14.5225 20.5845 13.9995 20.4969 13.5109 20.3043C13.0223 20.1118 12.5788 19.8186 12.2087 19.4434C11.4667 18.6313 11.0358 17.5789 10.9932 16.475L13.2036 15.8318C13.2726 16.5629 13.502 17.2693 13.8751 17.8998C14.029 18.1258 14.2379 18.3082 14.4816 18.4295C14.7253 18.5507 14.9957 18.6069 15.2671 18.5925C15.4689 18.6066 15.6714 18.5769 15.8608 18.5052C16.0502 18.4335 16.2222 18.3215 16.365 18.1769C16.6241 17.8648 16.7571 17.4655 16.7375 17.0588C16.7422 16.6653 16.6477 16.2772 16.463 15.9307C16.2298 15.5345 15.9257 15.1856 15.5661 14.9017L13.1154 12.7693C12.626 12.3407 12.2031 11.8404 11.8607 11.2851C11.5011 10.6533 11.3308 9.92977 11.3706 9.20223C11.3475 8.52402 11.5067 7.85216 11.8313 7.25789C12.1311 6.73398 12.5803 6.31333 13.1203 6.05071C13.7343 5.76479 14.4049 5.62434 15.0808 5.64008C15.5733 5.60901 16.0663 5.69333 16.5212 5.88644C16.9761 6.07954 17.3805 6.37621 17.703 6.75325C18.3188 7.52255 18.6804 8.46719 18.7372 9.45455L16.909 10.1422C16.8563 9.69404 16.756 9.25284 16.61 8.82622C16.5058 8.49077 16.3185 8.18768 16.066 7.94558C15.8082 7.72922 15.4795 7.61804 15.1445 7.63389C14.9511 7.62534 14.7581 7.65992 14.5794 7.73517C14.4006 7.81041 14.2405 7.92448 14.1104 8.06927C13.8566 8.35616 13.7184 8.72859 13.7232 9.11318C13.724 9.36936 13.7792 9.6224 13.8849 9.85529C14.0182 10.1306 14.2088 10.3736 14.4437 10.5677L16.9825 12.9276C17.3314 13.2485 17.6588 13.5923 17.9628 13.9567C18.2757 14.3357 18.5317 14.7591 18.7225 15.2134C18.9293 15.7319 19.0309 16.2871 19.0215 16.846C19.049 17.5645 18.8794 18.2768 18.5313 18.9041C18.2068 19.4488 17.7267 19.8817 17.1541 20.146C16.49 20.4382 15.7707 20.58 15.0465 20.5615Z" fill="#242424"/>
<path d="M20.7912 23.9998V21.9417C21.3057 21.95 21.82 21.9202 22.3302 21.8526C22.6304 21.8275 22.9167 21.7139 23.1536 21.5261C23.239 21.4395 23.3054 21.3357 23.3485 21.2215C23.3916 21.1072 23.4103 20.9851 23.4036 20.8631C23.3726 20.5288 23.3135 20.1978 23.2271 19.8736C23.1095 19.3789 22.987 18.8 22.8546 18.2162L19.9678 5.84766H22.6537L24.6142 16.6924L26.4669 5.84766H29.1528L25.7219 21.1847C25.6132 21.8097 25.3291 22.3901 24.9034 22.8569C24.4766 23.2848 23.9458 23.5919 23.3644 23.7475C22.631 23.9456 21.8737 24.0389 21.1147 24.0245L20.7912 23.9998Z" fill="#242424"/>
<path d="M34.6912 20.5615C33.7468 20.6265 32.8076 20.3742 32.02 19.8441C31.3882 19.3329 30.9559 18.6126 30.7996 17.8107C30.5805 16.8136 30.4769 15.7942 30.4908 14.773V11.4483C30.4723 10.3966 30.5809 9.3466 30.8143 8.3215C30.9802 7.53599 31.416 6.83502 32.0445 6.34253C32.8304 5.83174 33.7586 5.59056 34.6912 5.65483C35.5372 5.59619 36.3833 5.76701 37.1418 6.14958C37.7133 6.48965 38.1354 7.03606 38.323 7.67833C38.5578 8.4978 38.6669 9.34872 38.6465 10.2015V11.0574H36.2106V10.1916C36.2203 9.69373 36.1776 9.19619 36.0832 8.7074C36.033 8.39404 35.8751 8.10852 35.6371 7.90097C35.3657 7.71749 35.0415 7.63045 34.7157 7.6536C34.3646 7.63389 34.0178 7.73892 33.7354 7.95044C33.47 8.22636 33.3072 8.58642 33.2747 8.96961C33.1883 9.60402 33.1473 10.2439 33.1522 10.8843V15.4557C33.1522 16.6926 33.2649 17.5188 33.5002 17.9294C33.6273 18.1414 33.8111 18.3128 34.0305 18.4239C34.2499 18.5351 34.4959 18.5815 34.7402 18.5577C34.9162 18.5729 35.0935 18.5527 35.2617 18.4984C35.4299 18.444 35.5859 18.3566 35.7205 18.2411C35.9442 17.9951 36.0834 17.6828 36.1175 17.3506C36.1797 16.9181 36.2092 16.4814 36.2057 16.0444V14.8867H38.622V15.8762C38.6389 16.725 38.5248 17.5712 38.2838 18.3846C38.0912 19.0476 37.6684 19.6184 37.0928 19.9925C36.3608 20.4053 35.5287 20.6024 34.6912 20.5615Z" fill="#242424"/>
<path d="M41.0581 20.3589V0.0249023H43.7195V7.357C44.2039 6.88477 44.7477 6.4789 45.3369 6.14983C45.9472 5.81537 46.6325 5.64499 47.3268 5.65508C47.5628 5.63941 47.7996 5.67112 48.0234 5.7484C48.2472 5.82568 48.4535 5.94699 48.6306 6.1053C48.9438 6.41495 49.1675 6.80493 49.2775 7.23331C49.4002 7.68302 49.4628 8.14722 49.4638 8.61365V20.3589H46.8024V9.40029C46.8211 8.98096 46.7387 8.5633 46.5622 8.18322C46.4652 8.0318 46.3275 7.91138 46.1652 7.83603C46.0029 7.76069 45.8227 7.73353 45.6457 7.75774C45.3014 7.76745 44.9647 7.86261 44.6654 8.0348C44.3133 8.22083 43.9843 8.44835 43.6852 8.7126V20.3589H41.0581Z" fill="#242424"/>
<path d="M56.002 20.5615C55.1189 20.61 54.2424 20.3819 53.4926 19.9085C52.8642 19.453 52.4052 18.798 52.1888 18.0482C51.9132 17.1296 51.7826 16.173 51.8016 15.2134V10.9932C51.783 10.0336 51.9136 9.07702 52.1888 8.15833C52.4065 7.41055 52.8654 6.75758 53.4926 6.30304C54.2424 5.82964 55.1189 5.60156 56.002 5.64998C56.8823 5.59936 57.7563 5.82769 58.5017 6.30304C59.1247 6.7597 59.5798 7.41228 59.7956 8.15833C60.0708 9.07702 60.2015 10.0336 60.1828 10.9932V15.2134C60.2019 16.173 60.0712 17.1296 59.7956 18.0482C59.5811 18.7963 59.1258 19.4508 58.5017 19.9085C57.7563 20.3838 56.8823 20.6122 56.002 20.5615ZM56.002 18.5826C56.2059 18.6042 56.4119 18.5739 56.6011 18.4944C56.7903 18.4148 56.9568 18.2887 57.0852 18.1274C57.3118 17.7703 57.4403 17.3588 57.4577 16.9351C57.5018 16.4403 57.5214 15.9456 57.5214 15.3915V10.8448C57.5214 10.2907 57.5214 9.77614 57.4577 9.28634C57.4367 8.86326 57.3085 8.4527 57.0852 8.09401C56.9579 7.93114 56.7918 7.8035 56.6024 7.72304C56.4129 7.64257 56.2064 7.6119 56.002 7.6339C55.7964 7.6134 55.5889 7.64469 55.3981 7.72499C55.2074 7.80529 55.0393 7.93208 54.909 8.09401C54.6784 8.44984 54.5463 8.86156 54.5267 9.28634C54.4826 9.78109 54.463 10.2758 54.463 10.8448V15.3865C54.463 15.9258 54.463 16.4403 54.5267 16.9301C54.5424 17.3556 54.6747 17.7684 54.909 18.1225C55.0404 18.2828 55.2088 18.4082 55.3993 18.4875C55.5899 18.5669 55.7968 18.5978 56.002 18.5776V18.5826Z" fill="#242424"/>
<path d="M62.6187 20.3587V5.84785H65.0693V7.22819C65.5074 6.71116 66.0485 6.29309 66.6573 6.00122C67.2178 5.7382 67.8282 5.60146 68.4463 5.60048C68.9515 5.59261 69.4484 5.73173 69.8774 6.00122C70.3534 6.33795 70.6832 6.84618 70.7989 7.42114C71.2504 6.83653 71.8245 6.36007 72.48 6.02596C73.0731 5.73752 73.7234 5.58866 74.3817 5.59059C74.8273 5.58414 75.2662 5.70045 75.6512 5.92701C76.0592 6.18435 76.3804 6.56036 76.5726 7.00555C76.8267 7.62058 76.9454 8.28399 76.9206 8.94989V20.329H74.4699V9.1379C74.5269 8.6398 74.4089 8.13733 74.1367 7.71798C74.0195 7.59638 73.8781 7.5013 73.7217 7.43903C73.5654 7.37677 73.3978 7.34875 73.2299 7.35682C72.8283 7.3658 72.4348 7.47274 72.083 7.66851C71.6712 7.89019 71.3013 8.18325 70.99 8.53431V20.3587H68.5394V9.1379C68.5949 8.63922 68.4752 8.13669 68.2012 7.71798C68.0846 7.5956 67.9433 7.5 67.7868 7.43768C67.6304 7.37535 67.4624 7.34778 67.2945 7.35682C66.8976 7.36662 66.5091 7.47359 66.1623 7.66851C65.75 7.89613 65.3761 8.18836 65.0546 8.53431V20.3587H62.6187Z" fill="#242424"/>
<path d="M83.5081 20.5616C82.5896 20.6195 81.6762 20.386 80.8957 19.8937C80.2527 19.4058 79.7999 18.7054 79.6165 17.9147C79.3559 16.8771 79.2356 15.8087 79.2587 14.7385V11.4484C79.2328 10.3642 79.3582 9.2816 79.6312 8.23261C79.8271 7.45454 80.2888 6.77124 80.9349 6.30311C81.7072 5.82698 82.6046 5.59921 83.5081 5.65005C84.7187 5.65005 85.6107 5.89742 86.1842 6.40206C86.7926 6.97641 87.19 7.7421 87.3115 8.57398C87.511 9.6954 87.6029 10.8336 87.5859 11.9729V13.1553H81.9152V16.0644C81.9027 16.5479 81.9572 17.0308 82.0769 17.4992C82.1579 17.8194 82.3425 18.1032 82.6014 18.3056C82.8749 18.4941 83.2017 18.5878 83.5326 18.5727C83.8607 18.5958 84.185 18.4913 84.4393 18.2808C84.6656 18.0588 84.8151 17.7691 84.8657 17.4546C84.9454 17.0373 84.9831 16.613 84.9785 16.1881V15.3371H87.5614V15.8912C87.6346 17.1153 87.3131 18.3303 86.6449 19.3544C86.0273 20.1592 84.9817 20.5616 83.5081 20.5616ZM81.9152 11.7008H84.9785V10.3897C84.9852 9.88142 84.9508 9.37344 84.8755 8.87083C84.8415 8.52403 84.697 8.19771 84.4638 7.94071C84.191 7.70972 83.8384 7.59761 83.4836 7.62902C83.1318 7.6031 82.7829 7.70876 82.5033 7.92587C82.2415 8.20425 82.0793 8.56297 82.0426 8.94504C81.9455 9.59996 81.9029 10.2619 81.9152 10.924V11.7008Z" fill="#242424"/>
<path d="M93.8299 20.5615C93.2007 20.5907 92.5759 20.4416 92.0263 20.1311C91.5777 19.8498 91.2332 19.4273 91.046 18.9289C90.8289 18.3423 90.7242 17.7194 90.7372 17.0934V7.63388H89.2031V5.84786H90.7225V1.60791H93.3839V5.84786H95.6924V7.63388H93.3839V16.9202C93.3476 17.3442 93.4417 17.7693 93.6535 18.1373C93.7885 18.2744 93.9527 18.3786 94.1336 18.4421C94.3145 18.5055 94.5073 18.5265 94.6975 18.5034C94.8515 18.5023 95.0053 18.4924 95.1582 18.4737L95.6483 18.4242V20.4032C95.3199 20.4527 95.0111 20.4923 94.7318 20.517C94.4524 20.5417 94.1632 20.5615 93.8299 20.5615Z" fill="#242424"/>
<path d="M97.7363 20.3588V5.84795H100.393V7.91598C100.771 7.19934 101.318 6.58765 101.986 6.1349C102.469 5.84737 103.018 5.69218 103.579 5.68468H103.765C103.843 5.67932 103.922 5.67932 104 5.68468V8.65314C103.78 8.56088 103.552 8.48805 103.319 8.43546C103.061 8.38031 102.798 8.35213 102.535 8.35135C102.139 8.34524 101.748 8.4442 101.402 8.6383C100.979 8.92055 100.632 9.30483 100.393 9.75642V20.3588H97.7363Z" fill="#242424"/>
<path d="M105.813 3.691V0.880859H108.475V3.691H105.813ZM105.813 20.3589V5.84808H108.475V20.3589H105.813Z" fill="#242424"/>
<path d="M111.387 20.334V0H114.048V12.1262L117.925 5.84787H120.714L117.332 11.5226L120.611 20.3587H117.954L115.269 12.9375L114.048 14.7978V20.334H111.387Z" fill="#242424"/>
<path d="M124.591 20.5615C124.06 20.5644 123.543 20.3905 123.12 20.0667C122.677 19.7363 122.32 19.3015 122.081 18.8002C121.834 18.2976 121.706 17.7436 121.709 17.1824C121.684 16.3962 121.836 15.6145 122.155 14.8967C122.449 14.2996 122.869 13.7745 123.385 13.358C123.942 12.9097 124.553 12.534 125.203 12.2399C125.889 11.9101 126.615 11.6 127.379 11.3098V10.2659C127.387 9.77892 127.352 9.29226 127.277 8.81131C127.241 8.48376 127.096 8.17827 126.865 7.94551C126.602 7.73388 126.269 7.63128 125.934 7.65856C125.621 7.64413 125.312 7.73079 125.051 7.90593C124.815 8.08511 124.643 8.33688 124.561 8.62331C124.457 8.978 124.407 9.34678 124.414 9.71669V10.444L121.777 10.345C121.81 8.73875 122.174 7.55466 122.87 6.79276C123.566 6.03085 124.645 5.6499 126.105 5.6499C127.53 5.6499 128.541 6.0424 129.139 6.82739C129.737 7.61403 130.031 8.75194 130.031 10.2411V16.8707C130.031 17.3209 130.031 17.7563 130.07 18.1768C130.109 18.5973 130.129 18.9832 130.168 19.3444C130.208 19.7056 130.247 20.042 130.281 20.3339H127.83C127.781 20.0667 127.718 19.7254 127.644 19.3444C127.571 18.9634 127.517 18.5578 127.482 18.2263C127.296 18.8275 126.968 19.3742 126.527 19.8194C126.272 20.0704 125.968 20.2659 125.635 20.3936C125.302 20.5212 124.947 20.5784 124.591 20.5615ZM125.635 18.251C125.901 18.2511 126.162 18.172 126.385 18.0234C126.609 17.8841 126.817 17.718 127.002 17.5287C127.145 17.3888 127.272 17.2327 127.379 17.0636V12.9276C126.963 13.1651 126.571 13.3976 126.208 13.6301C125.869 13.8493 125.549 14.0975 125.252 14.3722C124.984 14.6227 124.765 14.9213 124.605 15.2529C124.443 15.6008 124.363 15.9817 124.37 16.366C124.342 16.8482 124.455 17.328 124.694 17.7464C124.791 17.9077 124.93 18.0396 125.096 18.1283C125.261 18.2171 125.447 18.2594 125.635 18.251Z" fill="#242424"/>
</g>
<defs>
<clipPath id="clip0">
<rect width="130.286" height="24" fill="white"/>
</clipPath>
</defs>
</svg>
