<svg width="18" height="18" viewBox="0 0 18 18" fill="none" xmlns="http://www.w3.org/2000/svg">
<path d="M9 0C13.9706 0 18 4.02944 18 9C18 13.9706 13.9706 18 9 18C7.2904 18 5.64945 17.5218 4.23081 16.6338C3.65294 16.2721 3.1177 15.8457 2.63566 15.3636C2.1529 14.8808 1.72601 14.3446 1.36401 13.7657C0.4774 12.3478 0 10.7082 0 9C0 8.7258 0.01228 8.4531 0.0367 8.1823C0.07389 7.7697 0.43847 7.4655 0.85101 7.5026C1.26355 7.5398 1.56783 7.9044 1.53064 8.317C1.51026 8.543 1.5 8.7708 1.5 9C1.5 10.4249 1.89727 11.7893 2.63583 12.9704C2.93764 13.453 3.29368 13.9002 3.69639 14.303C4.09848 14.7051 4.5449 15.0608 5.02668 15.3623C6.20844 16.1021 7.5739 16.5 9 16.5C13.1421 16.5 16.5 13.1421 16.5 9C16.5 4.85786 13.1421 1.5 9 1.5C6.60271 1.5 4.39953 2.63281 2.99775 4.50196L5.75419 4.50209C6.1684 4.50209 6.50419 4.83788 6.50419 5.25209C6.50419 5.63179 6.22203 5.94558 5.85596 5.99525L5.75419 6.00209H1.25C0.8703 6.00209 0.55651 5.71994 0.50685 5.35386L0.5 5.25209V0.75209C0.5 0.33788 0.83579 0.00208998 1.25 0.00208998C1.6297 0.00208998 1.94349 0.28425 1.99315 0.65032L2 0.75209L1.999 3.34348C3.68587 1.25603 6.23628 0 9 0ZM8.25 4C8.6295 4 8.9435 4.28233 8.9931 4.64827L9 4.75V9H11.25C11.664 9 12 9.336 12 9.75C12 10.1295 11.7177 10.4435 11.3517 10.4931L11.25 10.5H8.25C7.8705 10.5 7.5565 10.2177 7.5069 9.8517L7.5 9.75V4.75C7.5 4.336 7.836 4 8.25 4Z" fill="#00718A"/>
</svg>
